<?xml version="1.0" encoding="UTF-8"?>
<svg id="uuid-8eb56f83-f815-438f-9e62-fbf4561c951f" data-name="Layer 1" xmlns="http://www.w3.org/2000/svg" viewBox="0 0 800 400">
  <g id="uuid-04345df0-76fb-471f-873a-a1196ee504ae" data-name="36AkGT">
    <g>
      <path d="M66.9,309c1.4,.2,1.8,.2,2.1,.4,6.2,3.5,12.3,7.1,18.5,10.6,5.4,3.1,6.6,2.4,6.7-4,0-6.4,0-12.7,0-19.1q0-12.1-10.5-6.1c-5.3,3.1-10.7,6.2-16.9,9.7,0-4.9,.4-8.5-.2-11.8-.2-1.5-2.4-3.6-3.7-3.6-1.4,0-3.8,2.2-3.9,3.5-.3,10.2-.3,20.4,0,30.7,0,1.2,2.6,3.4,3.9,3.3,1.3,0,3.4-2.1,3.6-3.6,.6-3.1,.2-6.4,.2-10Zm281.6-8.9c-7.5-4.3-13.9-8.1-20.4-11.8-5.6-3.2-6.8-2.5-6.8,3.7,0,7.9,0,15.8,0,23.8,0,6.2,1.3,6.8,6.8,3.7,6.6-3.8,13.2-7.6,20.5-11.8,0,4.3-.4,7.5,.2,10.4,.4,1.7,2.4,3,3.7,4.5,1.4-1.5,3.8-2.9,3.9-4.4,.4-9.6,.2-19.3,.2-29,0-2.9-.9-5.4-4.2-4.5-1.5,.4-3.3,2.7-3.6,4.4-.6,3.2-.2,6.5-.2,11Z"/>
      <path d="M207.8,253.6c-27.6,.2-50,22.7-50.1,50.3,0,27.8,22.6,50.4,50.5,50.3,27.7,0,50-22.5,50-50.2,0-27.8-22.8-50.6-50.5-50.4Zm-11.5,69.4v-38.1c11.3,6.5,21.5,12.4,33,19.1-11.3,6.5-21.8,12.6-33,19Z"/>
      <path d="M66.9,309c0,3.6,.4,6.9-.2,10-.3,1.5-2.4,3.6-3.6,3.6-1.4,0-3.9-2.1-3.9-3.3-.3-10.2-.3-20.4,0-30.7,0-1.3,2.5-3.5,3.9-3.5,1.3,0,3.4,2.1,3.7,3.6,.6,3.4,.2,6.9,.2,11.8,6.2-3.5,11.5-6.6,16.9-9.7q10.5-6,10.5,6.1c0,6.4,0,12.7,0,19.1,0,6.3-1.3,7-6.7,4-6.2-3.5-12.3-7.1-18.5-10.6-.3-.2-.7-.1-2.1-.4Z"/>
      <path d="M348.5,300c0-4.5-.4-7.8,.2-11,.3-1.7,2.1-3.9,3.6-4.4,3.3-.9,4.2,1.6,4.2,4.5,0,9.7,.2,19.3-.2,29,0,1.5-2.5,2.9-3.9,4.4-1.3-1.5-3.4-2.8-3.7-4.5-.6-3-.2-6.1-.2-10.4-7.3,4.2-13.9,8-20.5,11.8-5.5,3.1-6.7,2.5-6.8-3.7,0-7.9,0-15.8,0-23.8,0-6.2,1.3-6.8,6.8-3.7,6.5,3.7,13,7.5,20.4,11.8Z"/>
    </g>
  </g>
  <g>
    <g>
      <path d="M418.3,306.9c0-6.3,1.4-12.1,4.1-17.4,2.7-5.3,6.4-9.5,11.1-12.8,4.7-3.2,10-4.9,16-4.9s11.4,1.6,16.1,4.9c4.7,3.2,8.3,7.1,10.9,11.5v-42.7h4.4v88c0,.9,.2,1.6,.7,2.1,.4,.5,1,.8,1.7,.8v3.9c-1,0-1.8,0-2.3-.1-1.2-.3-2.2-1-3-2.1-.8-1-1.2-2.2-1.2-3.4v-8.2c-2.8,4.5-6.5,8.1-11.3,10.9-4.8,2.8-9.6,4.2-14.7,4.2s-9-1-13-2.9c-4-1.9-7.4-4.6-10.3-7.9-2.9-3.3-5.1-7.1-6.7-11.2-1.6-4.1-2.4-8.4-2.4-12.7Zm58.1,11.1v-23.2c-1.2-3.5-3.2-6.7-6.1-9.5-2.9-2.8-6.1-5.1-9.6-6.7s-7.1-2.5-10.6-2.5-7.9,.9-11.2,2.6c-3.3,1.7-6.2,4.1-8.6,7-2.4,2.9-4.3,6.2-5.5,9.9-1.3,3.7-1.9,7.4-1.9,11.3s.7,7.9,2.1,11.6c1.4,3.7,3.5,7,6.1,9.8,2.6,2.9,5.7,5.1,9.1,6.7,3.4,1.6,7.1,2.4,11.1,2.4s5.2-.5,8-1.5c2.8-1,5.5-2.4,8-4.2,2.6-1.8,4.6-3.9,6.3-6.3,1.6-2.4,2.6-4.9,2.9-7.4Z"/>
      <path d="M529.7,341.6c-4.5,0-8.7-.9-12.7-2.7-4-1.8-7.4-4.3-10.4-7.6-2.9-3.2-5.2-7-6.9-11.1-1.6-4.2-2.5-8.6-2.5-13.3s.8-9.2,2.5-13.5c1.7-4.2,4-8,6.9-11.2,2.9-3.2,6.4-5.8,10.4-7.6,4-1.8,8.2-2.7,12.6-2.7s8.7,.9,12.7,2.7c3.9,1.8,7.4,4.3,10.4,7.6s5.3,7,7,11.2c1.7,4.2,2.5,8.7,2.5,13.5s-.8,9.1-2.5,13.3c-1.6,4.2-4,7.9-6.9,11.1s-6.4,5.8-10.4,7.6c-3.9,1.8-8.2,2.7-12.8,2.7Zm-28-34.6c0,5.6,1.3,10.7,3.8,15.3,2.5,4.6,5.9,8.3,10.1,11,4.2,2.7,8.9,4.1,14,4.1s9.9-1.4,14.1-4.1c4.2-2.8,7.6-6.5,10.2-11.2,2.6-4.7,3.8-9.8,3.8-15.3s-1.3-10.7-3.8-15.4c-2.6-4.7-5.9-8.4-10.2-11.1-4.2-2.8-8.9-4.1-14-4.1s-9.7,1.4-13.9,4.2c-4.3,2.8-7.7,6.6-10.2,11.3-2.6,4.7-3.8,9.9-3.8,15.5Z"/>
      <path d="M604.1,248.2l37.1,86.5,37-86.5h4.8l-39.6,92.1h-4.4l-39.6-92.1h4.7Z"/>
      <path d="M748.9,261.8c-1.7-1.8-3.5-3.4-5.3-4.7-1.8-1.3-3.8-2.3-5.8-3.1-2.1-.8-4.3-1.4-6.6-1.8-2.3-.4-4.9-.6-7.7-.6-9.8,0-16.9,1.9-21.3,5.6-4.4,3.7-6.6,8.7-6.6,14.9s1,7.6,2.9,10c1.9,2.4,4.9,4.3,9.1,5.8,4.2,1.4,9.5,2.8,16.1,4.2,6.7,1.4,12.6,3,17.5,4.8,4.9,1.8,8.7,4.3,11.4,7.4,2.7,3.1,4,7.4,4,12.8s-.8,7.3-2.3,10.3c-1.5,3-3.7,5.5-6.6,7.5-2.9,2-6.3,3.5-10.3,4.5-4,1-8.5,1.5-13.4,1.5s-9.5-.5-13.8-1.5c-4.2-1-8.2-2.5-11.9-4.6-3.7-2.1-7.2-4.7-10.5-7.9l2.7-3.4c2.1,2.2,4.3,4.2,6.8,5.9s5.1,3.1,7.9,4.2c2.8,1.1,5.8,2,9,2.5,3.2,.6,6.5,.8,9.9,.8,8.6,0,15.5-1.6,20.4-4.9,5-3.2,7.5-8,7.5-14.3s-1.1-7.9-3.2-10.6c-2.2-2.6-5.4-4.8-9.9-6.5-4.4-1.7-10-3.2-16.9-4.6-6.7-1.4-12.3-2.9-16.9-4.5-4.6-1.6-8.1-3.9-10.5-6.9-2.4-2.9-3.6-6.9-3.6-11.9s1.3-10.1,4-13.8,6.4-6.6,11.3-8.6c4.8-1.9,10.5-2.9,17-2.9s7.6,.4,10.9,1.2c3.3,.8,6.3,1.9,9.1,3.5,2.8,1.6,5.5,3.6,8,6.2l-2.5,3.4Z"/>
    </g>
    <g>
      <path d="M142.1,142.4c0,8-1.2,15.2-3.5,21.7-2.4,6.4-5.7,11.9-10.1,16.5-4.4,4.6-9.7,8.1-15.9,10.5-6.2,2.4-13.3,3.6-21.2,3.6s-14.9-.6-21.8-1.7c-6.9-1.1-12.7-2.4-17.3-3.8V48l23.1-3.8v51.7c2.7-1.4,5.9-2.7,9.8-3.8,3.9-1.1,8.2-1.7,12.9-1.7,7,0,13.3,1.2,18.8,3.7s10.1,6,13.8,10.6c3.7,4.6,6.5,10.1,8.5,16.5,2,6.4,3,13.5,3,21.3Zm-23.7-.4c0-9.8-1.9-17.6-5.8-23.3-3.9-5.7-10-8.6-18.4-8.6s-7.4,.6-10.8,1.7c-3.4,1.1-6.1,2.4-8.1,3.8v57.4c1.7,.4,3.8,.7,6.4,1,2.6,.3,5.8,.5,9.4,.5,8.5,0,15.2-2.9,20-8.7,4.8-5.8,7.2-13.8,7.2-23.9Z"/>
      <path d="M248.6,142.3c0,7.9-1.1,15.1-3.4,21.6-2.3,6.5-5.5,12-9.7,16.6-4.2,4.6-9.3,8.1-15.2,10.7-5.9,2.5-12.4,3.8-19.6,3.8s-13.6-1.3-19.5-3.8c-5.9-2.5-10.9-6.1-15.1-10.7-4.2-4.6-7.5-10.1-9.8-16.6-2.4-6.5-3.5-13.7-3.5-21.6s1.2-15,3.5-21.5c2.4-6.4,5.7-11.9,9.9-16.5,4.3-4.6,9.3-8.1,15.2-10.6,5.8-2.5,12.3-3.7,19.3-3.7s13.5,1.2,19.4,3.7c5.9,2.5,11,6,15.2,10.6,4.2,4.6,7.5,10.1,9.8,16.5,2.4,6.4,3.5,13.6,3.5,21.5Zm-23.7,0c0-9.9-2.1-17.8-6.4-23.6-4.3-5.8-10.2-8.7-17.8-8.7s-13.6,2.9-17.8,8.7c-4.3,5.8-6.4,13.6-6.4,23.6s2.1,18,6.4,23.9c4.3,5.9,10.2,8.8,17.8,8.8s13.6-2.9,17.8-8.8c4.3-5.8,6.4-13.8,6.4-23.9Z"/>
      <path d="M355.1,142.3c0,7.9-1.1,15.1-3.4,21.6-2.3,6.5-5.5,12-9.7,16.6-4.2,4.6-9.3,8.1-15.2,10.7-5.9,2.5-12.4,3.8-19.6,3.8s-13.6-1.3-19.5-3.8c-5.9-2.5-10.9-6.1-15.1-10.7-4.2-4.6-7.5-10.1-9.8-16.6-2.4-6.5-3.5-13.7-3.5-21.6s1.2-15,3.5-21.5c2.4-6.4,5.7-11.9,9.9-16.5,4.3-4.6,9.3-8.1,15.2-10.6,5.8-2.5,12.3-3.7,19.3-3.7s13.5,1.2,19.4,3.7c5.9,2.5,11,6,15.2,10.6,4.2,4.6,7.5,10.1,9.8,16.5,2.4,6.4,3.5,13.6,3.5,21.5Zm-23.7,0c0-9.9-2.1-17.8-6.4-23.6-4.3-5.8-10.2-8.7-17.8-8.7s-13.6,2.9-17.8,8.7c-4.3,5.8-6.4,13.6-6.4,23.6s2.1,18,6.4,23.9c4.3,5.9,10.2,8.8,17.8,8.8s13.6-2.9,17.8-8.8c4.3-5.8,6.4-13.8,6.4-23.9Z"/>
      <path d="M455.6,189.2c-4.6,1.4-10.3,2.7-17.3,3.8-6.9,1.1-14.2,1.7-21.8,1.7s-14.9-1.2-21.2-3.6c-6.2-2.4-11.5-5.9-15.9-10.4-4.4-4.5-7.8-10-10.1-16.4-2.4-6.4-3.5-13.6-3.5-21.7s1-15,3-21.5c2-6.4,4.9-11.9,8.7-16.5,3.8-4.6,8.5-8.1,13.9-10.6,5.5-2.5,11.8-3.7,18.9-3.7s9.1,.6,12.8,1.7c3.7,1.1,6.9,2.4,9.5,3.8V48l23.1-3.8V189.2Zm-66.2-47.1c0,10.2,2.4,18.2,7.2,23.9,4.8,5.8,11.5,8.7,20,8.7s6.8-.2,9.4-.5c2.6-.3,4.7-.7,6.4-1v-57.2c-2-1.4-4.7-2.7-8.1-3.9-3.4-1.2-7-1.8-10.8-1.8-8.4,0-14.5,2.9-18.4,8.6-3.9,5.7-5.8,13.5-5.8,23.3Z"/>
      <path d="M471.8,142.8c0-8.8,1.3-16.5,3.9-23.1,2.6-6.6,6.1-12.1,10.4-16.5,4.3-4.4,9.3-7.7,14.9-9.9,5.6-2.2,11.3-3.3,17.2-3.3,13.7,0,24.5,4.3,32.2,12.8,7.7,8.5,11.5,21.2,11.5,38.2s0,2.7,0,4.3c0,1.6-.2,3-.3,4.3h-65.8c.6,8,3.5,14.2,8.5,18.6,5,4.4,12.3,6.6,21.8,6.6s10.7-.5,15.4-1.5c4.6-1,8.3-2.1,11-3.2l3.1,18.9c-1.3,.6-3,1.3-5.2,2-2.2,.7-4.8,1.3-7.6,1.9-2.9,.6-5.9,1-9.3,1.4-3.3,.4-6.7,.6-10.1,.6-8.8,0-16.4-1.3-22.9-3.9s-11.8-6.2-16-10.9c-4.2-4.6-7.3-10.1-9.3-16.4-2-6.3-3.1-13.2-3.1-20.7Zm67-10.3c0-3.2-.4-6.2-1.3-9.1-.9-2.9-2.2-5.3-3.9-7.4-1.7-2.1-3.8-3.8-6.3-5-2.5-1.2-5.4-1.8-8.9-1.8s-6.7,.7-9.3,2-4.9,3.1-6.8,5.2c-1.8,2.2-3.3,4.6-4.3,7.4-1,2.8-1.7,5.7-2.1,8.6h42.9Z"/>
      <path d="M661.1,182.1c0,15.9-4,27.5-12.1,34.9-8.1,7.4-20.4,11.1-37.1,11.1s-12.1-.5-17.8-1.5c-5.8-1-11-2.4-15.7-4l4.2-19.7c3.9,1.7,8.4,3,13.5,4,5,1,10.5,1.5,16.3,1.5,9.3,0,15.9-1.9,19.8-5.7,3.9-3.8,5.9-9.5,5.9-17v-3.8c-2.3,1.1-5.3,2.3-9.1,3.4-3.8,1.1-8,1.7-12.9,1.7s-12.2-1-17.5-3.1c-5.3-2-9.8-5-13.5-9-3.8-3.9-6.7-8.9-8.8-14.8s-3.1-12.8-3.1-20.5,1.1-13.9,3.3-20c2.2-6.1,5.5-11.3,9.7-15.6,4.3-4.3,9.4-7.7,15.6-10.1,6.1-2.4,13-3.6,20.8-3.6s14.6,.6,21.4,1.7c6.7,1.1,12.5,2.4,17.2,3.6v86.4Zm-64.3-42.4c0,9.8,2.1,17,6.4,21.5,4.3,4.5,9.8,6.8,16.5,6.8s7.2-.5,10.4-1.5c3.2-1,5.9-2.2,7.9-3.6v-51.7c-1.7-.4-3.7-.7-6.1-1-2.4-.3-5.5-.5-9.2-.5-8.4,0-14.8,2.8-19.3,8.3-4.5,5.5-6.7,12.8-6.7,21.8Z"/>
      <path d="M716.1,90c7.6,0,14.1,1,19.3,2.9,5.2,1.9,9.4,4.6,12.5,8,3.1,3.4,5.3,7.6,6.7,12.5,1.3,4.9,2,10.3,2,16.1v60.5c-3.6,.8-8.9,1.7-16.1,2.8-7.2,1.1-15.3,1.6-24.3,1.6s-11.4-.6-16.4-1.7-9.2-3-12.7-5.5c-3.5-2.5-6.2-5.8-8.2-9.9-2-4.1-3-9.1-3-15.1s1.1-10.6,3.3-14.5c2.2-3.9,5.2-7.2,9.1-9.6,3.8-2.5,8.2-4.3,13.3-5.3,5-1.1,10.3-1.6,15.7-1.6s5.2,.2,8,.5c2.8,.3,5.8,.9,9,1.6v-3.8c0-2.7-.3-5.2-1-7.6-.6-2.4-1.8-4.5-3.3-6.4-1.6-1.8-3.7-3.3-6.3-4.3-2.6-1-5.9-1.5-9.8-1.5s-10.2,.4-14.7,1.1c-4.5,.8-8.1,1.7-10.9,2.7l-2.9-18.7c2.9-1,7.2-2,12.8-3.1,5.6-1,11.6-1.5,17.9-1.5Zm1.9,86.1c7.1,0,12.5-.4,16.2-1.1v-25.6c-1.3-.4-3.1-.8-5.5-1.1-2.4-.4-5.1-.6-8-.6s-5.1,.2-7.7,.6c-2.6,.4-5,1.1-7.1,2.1-2.1,1-3.8,2.5-5.1,4.3-1.3,1.8-1.9,4.2-1.9,7,0,5.5,1.7,9.3,5.2,11.4,3.4,2.1,8.1,3.1,13.9,3.1Z"/>
    </g>
  </g>
</svg>